<svg xmlns="http://www.w3.org/2000/svg" viewBox="0 0 300 200" width="300" height="200">
  <!-- Background -->
  <rect width="300" height="200" fill="#f5f5f5"/>
  
  <!-- Browser window frame -->
  <rect x="50" y="30" width="200" height="140" rx="5" ry="5" fill="white" stroke="#2D2D2D" stroke-width="2"/>
  
  <!-- Browser top bar -->
  <rect x="50" y="30" width="200" height="20" rx="5" ry="5" fill="#2D2D2D"/>
  
  <!-- Browser buttons -->
  <circle cx="65" cy="40" r="3" fill="#FF6B6B"/>
  <circle cx="75" cy="40" r="3" fill="#FFD166"/>
  <circle cx="85" cy="40" r="3" fill="#50E3C2"/>
  
  <!-- Address bar -->
  <rect x="95" y="35" width="145" height="10" rx="2" ry="2" fill="white" opacity="0.3"/>
  
  <!-- Website content -->
  <!-- Header area -->
  <rect x="60" y="60" width="180" height="20" fill="#4A90E2"/>
  <rect x="70" y="65" width="100" height="10" fill="white" opacity="0.5"/>
  
  <!-- Navigation menu -->
  <rect x="60" y="85" width="180" height="10" fill="#e0e0e0"/>
  <rect x="70" y="85" width="25" height="10" fill="#4A90E2"/>
  <rect x="105" y="85" width="25" height="10" fill="#e0e0e0"/>
  <rect x="140" y="85" width="25" height="10" fill="#e0e0e0"/>
  <rect x="175" y="85" width="25" height="10" fill="#e0e0e0"/>
  
  <!-- Content area -->
  <rect x="70" y="105" width="70" height="50" fill="#e0e0e0"/>
  <rect x="150" y="105" width="80" height="5" fill="#e0e0e0"/>
  <rect x="150" y="115" width="80" height="5" fill="#e0e0e0"/>
  <rect x="150" y="125" width="80" height="5" fill="#e0e0e0"/>
  <rect x="150" y="135" width="80" height="5" fill="#e0e0e0"/>
  <rect x="150" y="145" width="40" height="10" rx="2" ry="2" fill="#4A90E2"/>
  
  <!-- Title -->
  <text x="150" y="175" font-family="Arial" font-size="14" font-weight="bold" text-anchor="middle" fill="#2D2D2D">Web Development Project</text>
</svg>
